<svg xmlns="http://www.w3.org/2000/svg" version="1.1" encoding="UTF-8" standalone="no" width="510" height="310">
	<g transform="matrix(1.25,0,0,-1.25,3.54473,306.06245) scale(0.1,0.1)" >
		<path fill="#9f0e22" d="M 2803.1,245.621 C 2366.5,162.035 1424.12,192.449 303.559,348.641 377.477,317.289 434.195,281.641 502.855,237.172 1600.62,81.8008 2321.76,86.8594 2747.34,178.066 c 38.85,21.957 43.91,37.157 55.76,67.555 l 0,0" />
		<path fill="#4997d9" d="m 750.84,519.199 c -3.262,-8.187 -6.348,-15.597 -9.176,-22.133 120.332,30.688 225.27,104.942 343.086,35.821 15.74,220.496 47.34,458.816 171.17,807.113 4.24,87.85 10.44,177.85 18.72,275.68 -32.94,-389.52 -32.94,-655.742 -4.41,-1155.153 -153.8,24.028 -431.277,6.567 -566.007,-45.722 10.98,25.562 26.933,61.226 46.617,104.394" />
		<path fill="#225aa6" d="M 1264.75,2259.18 C 874.328,1732.13 422.793,1043.55 272.227,812.516 422.793,1043.55 874.328,1732.13 1264.75,2259.18" />
		<path fill="#0974c5" d="m 558.344,742.5 c 206.461,87.387 255.051,179.547 421.461,166.676 51.215,535.044 176.585,737.284 298.165,1058.394 -99.69,-165.17 -197.96,-330.05 -290.65,-486.98 0.004,0.03 0.016,0.07 0.02,0.1 98.45,166.7 203.2,342.34 309.27,517.76 C 1111.74,1507.86 1069.98,777.684 1069.98,599.125 994.473,638.547 729.516,620.547 420.367,496.168 c 25.957,48.164 73.844,133.75 137.977,246.332 m 157.988,274.88 0.02,0 C 673.578,943.52 633.977,874.75 598.266,812.398 c 35.687,62.329 75.324,131.157 118.066,204.982" />
		<path fill="#095fa8" d="M 1264.75,2259.18 C 968.824,1847.07 953.434,1191.32 953.434,1012.76 733.383,1076.58 489.125,948.957 272.227,812.516 422.793,1043.55 874.328,1732.13 1264.75,2259.18" />
		<g fill="#09397f">
			<path d="M 2792.65,267.379 C 2399.82,192.129 1581.42,221.758 566.953,338.188 468.238,349.551 184.496,383.785 14.0039,405.801 4.73828,420.977 0,445.41 0,475.102 632.199,407.871 2233.08,205.469 2784.55,310.383 c 2.5,-11.766 8.83,-18.098 8.1,-43.004 l 0,0" />
			<path d="m 785.875,601.973 c 1.082,0.179 2.16,0.367 3.242,0.547 -13.808,-29.848 -26.586,-57.637 -38.09,-82.868 -0.066,-0.148 -0.125,-0.3 -0.187,-0.453 -19.684,-43.168 -35.637,-78.832 -46.617,-104.394 134.73,52.289 412.207,69.75 566.007,45.722 -28.35,496.391 -28.52,762.423 3.82,1148.123 0.2,0.4 0.4,0.78 0.59,1.17 -32.94,-389.51 -27.09,-673.285 1.45,-1172.785 -153.81,24.121 -454.598,0.813 -589.328,-51.48 19.199,44.738 54.55,121.613 99.113,216.418" />
			<path d="m 2963.33,357.59 25.61,10 3.45,0 0,-19.336 c 4.19,7.152 8.39,12.16 12.61,15.031 4.2,2.867 8.65,4.305 13.3,4.305 8.14,0 14.92,-3.215 20.35,-9.629 6.66,-7.848 9.99,-18.07 9.99,-30.664 0,-14.09 -4.02,-25.738 -12.02,-34.949 -6.62,-7.547 -14.92,-11.325 -24.94,-11.325 -4.38,0 -8.15,0.625 -11.33,1.868 -2.37,0.882 -5.01,2.656 -7.96,5.324 l 0,-24.692 c 0,-5.703 0.34,-9.328 1.02,-10.882 0.68,-1.543 1.86,-2.774 3.54,-3.684 1.69,-0.91 4.75,-1.367 9.19,-1.367 l 0,-3.125 -43.75,0 0,3.125 2.31,0 c 3.38,-0.063 6.27,0.562 8.68,1.883 1.17,0.66 2.08,1.722 2.73,3.183 0.64,1.469 0.97,5.196 0.97,11.184 l 0,77.808 c 0,5.172 -0.25,8.454 -0.72,9.852 -0.48,1.391 -1.24,2.441 -2.28,3.148 -1.04,0.704 -2.46,1.059 -4.24,1.059 -1.43,0 -3.24,-0.414 -5.45,-1.242 l -1.06,3.125 0,0 z m 29.06,-14.606 0,-30.558 c 0,-6.617 0.26,-10.965 0.79,-13.047 0.82,-3.457 2.83,-6.492 6.03,-9.109 3.19,-2.625 7.23,-3.93 12.11,-3.93 5.86,0 10.61,2.316 14.25,6.965 4.76,6.074 7.13,14.625 7.13,25.644 0,12.508 -2.7,22.125 -8.09,28.86 -3.77,4.64 -8.23,6.964 -13.38,6.964 -2.82,0 -5.61,-0.714 -8.36,-2.14 -2.12,-1.074 -5.61,-4.289 -10.48,-9.649 l 0,0" />
			<path d="m 3176.09,367.59 0,-18.309 c 6.86,12.203 13.91,18.309 21.13,18.309 3.28,0 6,-1 8.15,-2.981 2.15,-1.98 3.22,-4.277 3.22,-6.886 0,-2.309 -0.78,-4.262 -2.34,-5.864 -1.55,-1.601 -3.42,-2.394 -5.58,-2.394 -2.1,0 -4.44,0.984 -7.03,2.965 -2.59,1.98 -4.52,2.968 -5.76,2.968 -1.08,0 -2.23,-0.586 -3.48,-1.757 -2.69,-2.403 -5.45,-6.352 -8.31,-11.852 l 0,-39.199 c 0,-4.516 0.59,-7.922 1.75,-10.238 0.79,-1.598 2.2,-2.954 4.21,-4.051 2.03,-1.106 4.93,-1.653 8.73,-1.653 l 0,-3.125 -42.5,0 0,3.125 c 4.26,0 7.41,0.661 9.48,1.985 1.51,0.957 2.58,2.492 3.19,4.594 0.3,1.015 0.45,3.929 0.45,8.738 l 0,31.25 c 0,9.683 -0.19,15.453 -0.57,17.297 -0.4,1.847 -1.11,3.187 -2.15,4.031 -1.05,0.84 -2.34,1.258 -3.88,1.258 -1.85,0 -3.93,-0.449 -6.25,-1.336 l -0.9,3.125 24.7,10 3.74,0 0,0" />
			<path d="m 3344.52,367.59 c 12.4,0 22.36,-4.699 29.87,-14.09 6.38,-8.023 9.57,-17.23 9.57,-27.629 0,-7.316 -1.76,-14.715 -5.27,-22.203 -3.52,-7.492 -8.36,-13.137 -14.53,-16.941 -6.18,-3.797 -13.05,-5.704 -20.62,-5.704 -12.34,0 -22.16,4.903 -29.42,14.707 -6.15,8.266 -9.22,17.536 -9.22,27.821 0,7.484 1.86,14.926 5.6,22.328 3.71,7.398 8.62,12.867 14.7,16.402 6.09,3.535 12.52,5.309 19.32,5.309 l 0,0 z m -2.77,-5.942 c -3.18,0 -6.36,-0.933 -9.57,-2.804 -3.2,-1.871 -5.79,-5.153 -7.76,-9.84 -1.97,-4.692 -2.96,-10.719 -2.96,-18.082 0,-11.879 2.38,-22.121 7.14,-30.731 4.76,-8.613 11.02,-12.918 18.79,-12.918 5.8,0 10.58,2.375 14.36,7.125 3.76,4.75 5.65,12.914 5.65,24.497 0,14.488 -3.14,25.89 -9.42,34.207 -4.24,5.699 -9.66,8.546 -16.23,8.546 l 0,0" />
			<path d="m 3515.17,367.59 0,-82.176 c 0,-13.957 -2.96,-24.324 -8.88,-31.102 -5.9,-6.773 -13.59,-10.164 -23.05,-10.164 -5.38,0 -9.38,0.985 -11.99,2.942 -2.59,1.961 -3.89,3.98 -3.89,6.055 0,2.078 0.73,3.859 2.19,5.339 1.47,1.485 3.18,2.231 5.15,2.231 1.55,0 3.14,-0.379 4.75,-1.141 1.01,-0.41 2.93,-1.883 5.74,-4.429 2.82,-2.532 5.2,-3.805 7.15,-3.805 1.41,0 2.8,0.551 4.16,1.644 1.36,1.098 2.35,2.934 3.01,5.512 0.64,2.578 0.97,8.164 0.97,16.754 l 0,57.965 c 0,9.019 -0.27,14.824 -0.81,17.39 -0.42,1.973 -1.07,3.329 -1.96,4.079 -0.89,0.742 -2.11,1.117 -3.66,1.117 -1.67,0 -3.69,-0.449 -6.07,-1.336 l -1.25,3.125 24.6,10 3.84,0 0,0 z m -7.71,42.808 c 2.58,0 4.77,-0.902 6.57,-2.699 1.8,-1.797 2.7,-3.984 2.7,-6.562 0,-2.52 -0.9,-4.68 -2.7,-6.481 -1.8,-1.797 -3.99,-2.691 -6.57,-2.691 -2.51,0 -4.67,0.894 -6.47,2.691 -1.79,1.801 -2.69,3.961 -2.69,6.481 0,2.578 0.9,4.765 2.69,6.562 1.8,1.797 3.96,2.699 6.47,2.699 l 0,0" />
			<path d="m 3643.58,334.465 c -0.06,-12.09 2.85,-21.57 8.74,-28.445 5.88,-6.875 12.79,-10.305 20.73,-10.305 5.29,0 9.9,1.453 13.82,4.367 3.91,2.918 7.19,8.023 9.83,15.316 l 2.82,-1.796 c -1.25,-8.325 -4.88,-15.832 -10.87,-22.532 -6.01,-6.699 -13.52,-10.047 -22.55,-10.047 -9.81,0 -18.19,3.817 -25.18,11.442 -6.98,7.629 -10.47,17.887 -10.47,30.773 0,13.95 3.59,24.828 10.75,32.637 7.16,7.805 16.14,11.715 26.95,11.715 9.15,0 16.66,-3.008 22.55,-9.016 5.88,-6.012 8.82,-14.047 8.82,-24.109 l -55.94,0 0,0 z m 0,5.308 37.5,0 c -0.29,5.188 -0.92,8.84 -1.86,10.957 -1.47,3.301 -3.67,5.895 -6.59,7.782 -2.92,1.883 -5.97,2.828 -9.15,2.828 -4.89,0 -9.28,-1.906 -13.13,-5.707 -3.87,-3.797 -6.13,-9.086 -6.77,-15.86 l 0,0" />
			<path d="m 3871.4,314.477 c -2.2,-10.84 -6.53,-19.125 -12.98,-24.856 -6.43,-5.734 -13.56,-8.598 -21.37,-8.598 -9.31,0 -17.42,3.895 -24.34,11.676 -6.91,7.785 -10.37,18.309 -10.37,31.563 0,12.832 3.84,23.261 11.51,31.289 7.68,8.023 16.9,12.039 27.66,12.039 8.07,0 14.7,-2.129 19.9,-6.379 5.2,-4.246 7.8,-8.66 7.8,-13.234 0,-2.258 -0.74,-4.086 -2.2,-5.481 -1.47,-1.398 -3.52,-2.098 -6.15,-2.098 -3.54,0 -6.16,1.129 -7.86,3.395 -1.12,1.25 -1.84,3.629 -2.17,7.145 -0.33,3.511 -1.54,6.187 -3.65,8.031 -2.1,1.789 -5,2.679 -8.72,2.679 -6,0 -10.82,-2.195 -14.47,-6.586 -4.85,-5.812 -7.28,-13.496 -7.28,-23.046 0,-9.731 2.41,-18.321 7.23,-25.762 4.83,-7.445 11.34,-11.164 19.54,-11.164 5.87,0 11.14,1.914 15.81,5.746 3.29,2.703 6.5,7.66 9.61,14.879 l 2.5,-1.238 0,0" />
			<path d="m 3997.96,392.59 0,-27.192 19.12,0 0,-6.25 -19.12,0 0,-53.07 c 0,-5.301 0.77,-8.875 2.32,-10.723 1.54,-1.843 3.53,-2.765 5.95,-2.765 2,0 3.94,0.601 5.82,1.812 1.87,1.211 3.33,3.004 4.35,5.371 l 3.44,0 c -2.1,-5.804 -5.06,-10.175 -8.9,-13.101 -3.82,-2.934 -7.78,-4.399 -11.85,-4.399 -2.76,0 -5.45,0.766 -8.09,2.278 -2.63,1.519 -4.58,3.691 -5.84,6.519 -1.26,2.825 -1.88,7.188 -1.88,13.078 l 0,55 -12.82,0 0,2.946 c 3.25,1.32 6.57,3.554 9.95,6.711 3.39,3.148 6.41,6.894 9.07,11.23 1.36,2.285 3.25,6.469 5.67,12.555 l 2.81,0 0,0" />
			<path d="m 769.867,0 c 0.821,1.01562 1.688,2.12109 2.567,3.125 45.586,54.125 131.164,99.047 254.516,94.6836 240.49,-8.4375 443.31,-25.0391 809.32,-7.0547 -360,9.1445 -798.36,47.1291 -1326.653,121.9301 C 640.898,136.34 750.098,21.3906 769.867,0 l 0,0" />
		</g>
		<path d="m 1134.71,1330.7 c 56.28,116.28 105.94,217.58 139.93,284.98 -33.99,-67.4 -83.65,-168.7 -139.93,-284.98 l 0,0" />
		<path d="m 751.027,519.652 c 11.504,25.231 24.282,53.02 38.09,82.868 136.246,22.773 238.443,18.75 280.863,-3.395 0,105.563 14.6,403.905 64.73,731.575 56.28,116.28 105.94,217.58 139.93,284.98 -8.28,-97.83 -14.48,-187.83 -18.72,-275.68 -123.83,-348.297 -155.43,-586.617 -171.17,-807.113 -117.816,69.121 -222.754,-5.133 -343.086,-35.821 2.883,6.661 6.031,14.219 9.363,22.586" />
		<path d="M 598.266,812.398 C 584.34,788.078 571.035,764.781 558.344,742.5 l -0.008,-0.004 c 12.691,22.27 26.012,45.594 39.93,69.902" />
		<path d="m 598.266,812.398 c -13.926,-24.32 -27.231,-47.617 -39.922,-69.898 12.691,22.281 25.996,45.578 39.922,69.898" />
		<path d="m 598.266,812.398 c 35.711,62.352 75.312,131.122 118.086,204.982 80.535,16.61 160.261,17.66 237.082,-4.62 0,80.69 3.144,258.8 33.886,467.83 92.69,156.93 190.96,321.81 290.65,486.98 -121.58,-321.11 -246.95,-523.35 -298.165,-1058.394 -166.41,12.871 -215,-79.289 -421.461,-166.676 12.691,22.281 25.996,45.578 39.922,69.898" />
		<path d="m 2340.62,619.59 c -48.08,19.715 -105.41,33.047 -150.12,-1.41 -30.7,-23.664 -26,-63.266 -8.3,-92.492 57.78,-95.43 167,-78.239 229.8,4.019 -10.61,11.641 -21.21,23.285 -31.82,34.926 11.87,-23.586 31.68,-58.145 57.39,-69.235 34.27,-14.773 65.16,21.063 87,42.79 13.1,13.042 25.89,26.265 40.82,37.242 28.22,20.742 51.72,-7.985 70.7,-28.981 32.68,-36.164 64.48,-67.781 115.84,-70.586 -0.46,0.024 -17.82,38.067 -29.86,38.723 -53.44,2.918 -79.98,39.203 -115.09,74.476 -14.44,14.516 -36.3,36.348 -58.51,32.879 -18.73,-2.929 -121.6,-119.406 -137.22,-88.351 -1.97,3.89 -28.59,39.156 -31.82,34.926 -25.76,-33.735 -55.36,-58.454 -96.98,-69.157 -26.84,-6.898 -76.26,-3.671 -81.63,25.996 -16.94,93.645 124.1,74.196 169.65,55.516 -4.22,1.727 -16.77,33.356 -29.85,38.719 l 0,0" />
		<path d="m 2923.6,1057.95 c 23.53,-175.157 -2.57,-348.141 -119.51,-486.091 -5.29,-6.23 30.59,-41.129 32.55,-38.808 117.67,138.789 143.55,312.808 119.91,488.769 -1.84,13.65 -32.47,32.56 -32.95,36.13 l 0,0" />
		<path d="m 2758.09,643.895 c 81.89,8.914 187.92,-0.903 259.48,-44.454 17.5,-10.648 7.29,-39.007 -1.8,-52.621 -12.96,-19.382 -39.23,-27.879 -60.32,-33.925 -46.29,-13.274 -96.78,-10.043 -144.37,-9.77 5.51,-0.031 18.38,-38.73 32.56,-38.809 63.07,-0.371 136.58,-6.293 191.35,30.684 43.97,29.695 19.37,79.668 -8.19,109.859 -69.45,76.102 -203.94,88.442 -301.27,77.848 3.72,0.402 19.45,-40.242 32.56,-38.812 l 0,0" />
		<path d="m 3260.93,635.422 c -44.48,36.508 -147.22,40.805 -157.86,-33.008 -5.29,-36.746 38.38,-77.594 65.45,-95.473 59.93,-39.578 140.64,-2.371 166.44,58.914 14.5,34.434 46.19,0.352 77.83,-0.917 31.53,-1.266 55.92,29.695 74.09,50.972 -10.85,12.934 -21.71,25.871 -32.56,38.805 -10.21,-61.613 20.49,-134.887 87.91,-148.445 68.27,-13.731 144.85,43.734 147.87,112.73 0.49,11.027 -33.48,34.75 -32.75,37.465 -12.65,-48.133 -10.99,-142.61 63.04,-137.707 72.29,4.789 123.73,75.012 191.83,90.379 -10.93,12.488 -21.84,24.972 -32.76,37.465 -14.69,-106.84 86.13,-156.036 178.11,-148.672 -4.16,-0.336 -19.15,39.882 -32.55,38.808 -27.74,-2.218 -54.54,-1.586 -81.61,5.028 -36.16,8.824 -35.29,37.535 -31,68.711 1,7.242 -25.27,39.16 -32.77,37.468 -43.48,-9.812 -84.57,-44.933 -123.63,-65.386 -21.43,-11.219 -44.07,-21.489 -68.18,-24.985 -4.83,-0.609 -9.64,-0.469 -14.45,0.426 -15.2,2.141 11.35,-27.414 7.61,-8.195 -4.31,22.172 3.35,46.64 8.92,67.851 -10.92,12.489 -21.84,24.981 -32.75,37.465 -2.27,-51.726 -42.34,-87.414 -88.39,-104.18 -22.29,-8.113 -46.75,-9.269 -69.48,-2.765 -5.39,1.742 -10.46,4.16 -15.22,7.254 8.27,-11.91 9.14,-10.696 2.61,3.64 -5.43,18.078 -2.8,38.746 0.2,56.84 1.27,7.645 -29.87,41.961 -32.56,38.805 -18.21,-21.313 -36.31,-42.195 -64.1,-50.02 -26.99,-7.597 -59.94,14.121 -82.16,26.067 -1.29,0.492 -1.81,0.058 -1.54,-1.297 -6.37,-76.207 -88.55,-115.66 -156.11,-89.985 -30.68,11.672 -8.96,47.887 6.43,62.086 31.64,29.172 90.55,29.59 123,2.954 16.15,-13.254 -13.3,26.296 -18.91,30.902 l 0,0" />
		<path d="m 1613.99,2413.49 c -19.2,-223.06 -23.53,-446.81 -24.13,-670.6 -1.22,-451.02 6.97,-902.109 12.31,-1353.081 0.22,-18.497 46.67,-48.219 46.7,-51.2 -5.3,447.899 -13.15,895.891 -12.33,1343.841 0.41,226.85 4.69,453.72 24.15,679.84 1.5,17.41 -46.81,49.96 -46.7,51.2 l 0,0" />
		<path d="m 2038.82,2248.28 c -12.15,-606.03 -47.11,-1211.34 -58.99,-1817.374 -0.36,-18.183 46.75,-48.773 46.7,-51.199 11.89,606.035 46.85,1211.343 58.99,1817.363 0.37,18.18 -46.75,48.79 -46.7,51.21 l 0,0" />
		<path d="m 1463.29,870.023 c -12.69,2.25 -27.72,38.071 -29.61,38.434 407.78,-72.992 824.93,-70.828 1237.76,-70.828 14.04,0 26.92,-38.524 32.31,-38.524 -23.1,0 -46.17,-0.007 -69.3,-0.007 -390.98,0 -785.38,1.925 -1171.16,70.925" />
	</g>
</svg>
